<svg
  viewBox="0 0 113.4 96.4"
  xmlns="http://www.w3.org/2000/svg"
  fill="#003b49"
>
  <g id="main-logo">

  <path fill="#003B49" d="M 10.086 52.429 C 10.086 67.28 16.609 75.608 30.905 75.608 C 41.176 75.608 49.226 69.64 52.973 60.341 C 52.973 60.202 53.112 60.202 53.112 60.202 L 53.112 60.341 C 57.97 69.778 68.102 75.608 82.12 75.608 C 96.971 75.608 108.768 67.974 108.768 56.593 C 108.768 48.404 103.633 43.408 93.223 38.689 C 91.697 37.995 88.504 36.468 87.116 35.774 C 81.703 33.137 78.511 30.778 78.511 25.92 C 78.511 20.784 83.091 17.315 89.198 17.315 C 98.775 17.315 102.522 24.393 105.159 32.166 L 107.519 32.166 L 106.27 15.233 L 104.466 15.233 L 104.188 15.51 C 102.939 17.037 101.412 17.037 98.914 16.204 C 95.999 15.233 92.668 14.4 88.921 14.4 C 77.401 14.4 68.796 21.617 68.796 30.778 C 68.796 38.55 73.376 43.547 82.397 47.572 C 83.647 48.127 86.7 49.653 88.366 50.347 C 93.64 52.846 97.942 55.344 97.942 61.034 C 97.942 68.391 90.447 72.416 82.259 72.416 C 69.212 72.416 61.856 63.949 61.856 49.515 L 61.856 16.066 L 39.094 16.066 L 39.094 18.425 L 39.788 18.425 C 48.532 19.258 49.642 20.784 49.642 29.806 L 49.642 49.376 C 49.642 63.255 43.952 71.444 34.514 71.444 C 25.909 71.444 22.716 64.782 22.716 53.262 L 22.716 16.066 L 0.232 16.066 L 0.232 18.425 L 0.787 18.425 C 8.976 19.258 10.225 20.229 10.225 29.528 L 10.225 52.429 L 10.086 52.429 Z" style=""></path>

  </g>
</svg>
